<svg width="24" height="25" viewBox="0 0 24 25" fill="none" xmlns="http://www.w3.org/2000/svg">
<g id="Star 1" clip-path="url(#clip0_2_271)">
<g id="star-1--reward-rating-rate-social-star-media-favorite-like-stars">
<path id="Vector" d="M12.8401 2.41058L15.5658 7.91344C15.6278 8.05312 15.7253 8.17409 15.8486 8.26433C15.9719 8.35456 16.1168 8.4109 16.2686 8.42772L22.2857 9.31915C22.4601 9.34154 22.6243 9.41304 22.7594 9.52531C22.8945 9.63756 22.9949 9.78595 23.0488 9.95311C23.1028 10.1203 23.1079 10.2994 23.0638 10.4694C23.02 10.6395 22.9284 10.7935 22.8 10.9134L18.4629 15.2163C18.3523 15.3197 18.2692 15.4492 18.2213 15.5929C18.1733 15.7366 18.1622 15.89 18.1886 16.0392L19.2343 22.0905C19.2646 22.2645 19.2454 22.4433 19.1791 22.6069C19.1128 22.7704 19.0018 22.912 18.8589 23.0157C18.7161 23.1193 18.5469 23.1806 18.3708 23.193C18.1948 23.2051 18.0187 23.1678 17.8629 23.0848L12.4458 20.2219C12.3071 20.1539 12.1546 20.1186 12.0001 20.1186C11.8455 20.1186 11.6931 20.1539 11.5543 20.2219L6.1372 23.0848C5.98136 23.1678 5.80539 23.2051 5.62931 23.193C5.45324 23.1806 5.28412 23.1193 5.14124 23.0157C4.99833 22.912 4.88739 22.7704 4.82101 22.6069C4.75465 22.4433 4.7355 22.2645 4.76577 22.0905L5.81149 15.9706C5.83799 15.8214 5.82678 15.668 5.77888 15.5243C5.73099 15.3806 5.64789 15.2511 5.5372 15.1477L1.14864 10.9134C1.0188 10.7902 0.927494 10.6319 0.885775 10.4578C0.844056 10.2837 0.853718 10.1012 0.913586 9.93252C0.973456 9.7638 1.08096 9.61606 1.22309 9.50719C1.36522 9.39833 1.53586 9.333 1.71435 9.31915L7.73149 8.42772C7.88337 8.4109 8.0282 8.35456 8.15152 8.26433C8.27485 8.17409 8.37236 8.05312 8.43435 7.91344L11.1601 2.41058C11.2343 2.25031 11.3528 2.11462 11.5017 2.01952C11.6505 1.92443 11.8234 1.8739 12.0001 1.8739C12.1767 1.8739 12.3496 1.92443 12.4985 2.01952C12.6473 2.11462 12.7658 2.25031 12.8401 2.41058Z" stroke="black" stroke-width="2" stroke-linecap="round" stroke-linejoin="round"/>
</g>
</g>
<defs>
<clipPath id="clip0_2_271">
<rect width="24" height="24" fill="white" transform="translate(0 0.541992)"/>
</clipPath>
</defs>
</svg>
